<svg viewBox="0 0 400 300" xmlns="http://www.w3.org/2000/svg">
  <rect width="400" height="300" fill="#f8faf8"/>
  
  <!-- Header with botanical theme -->
  <rect x="20" y="20" width="360" height="40" fill="#e8f5e8" rx="8"/>
  <text x="200" y="45" text-anchor="middle" font-family="Arial, sans-serif" font-size="16" font-weight="600" fill="#2d5016">Skin Care Catalogue</text>
  
  <!-- Product Grid with skincare theme -->
  <rect x="20" y="80" width="110" height="90" fill="#ffffff" rx="8" stroke="#d4edda" stroke-width="1"/>
  <rect x="145" y="80" width="110" height="90" fill="#ffffff" rx="8" stroke="#d4edda" stroke-width="1"/>
  <rect x="270" y="80" width="110" height="90" fill="#ffffff" rx="8" stroke="#d4edda" stroke-width="1"/>
  
  <!-- Skincare Product Icons -->
  <circle cx="75" cy="115" r="18" fill="#f1f8e9"/>
  <circle cx="75" cy="115" r="12" fill="#4caf50"/>
  <text x="75" y="120" text-anchor="middle" font-family="Arial, sans-serif" font-size="10" fill="white">🧴</text>
  
  <circle cx="200" cy="115" r="18" fill="#e8f5e8"/>
  <circle cx="200" cy="115" r="12" fill="#66bb6a"/>
  <text x="200" y="120" text-anchor="middle" font-family="Arial, sans-serif" font-size="10" fill="white">🌿</text>
  
  <circle cx="325" cy="115" r="18" fill="#f3e5f5"/>
  <circle cx="325" cy="115" r="12" fill="#ab47bc"/>
  <text x="325" y="120" text-anchor="middle" font-family="Arial, sans-serif" font-size="10" fill="white">✨</text>
  
  <!-- Product Labels -->
  <text x="75" y="190" text-anchor="middle" font-family="Arial, sans-serif" font-size="9" fill="#5d4037">Cleansing Serum</text>
  <text x="200" y="190" text-anchor="middle" font-family="Arial, sans-serif" font-size="9" fill="#5d4037">Botanical Essence</text>
  <text x="325" y="190" text-anchor="middle" font-family="Arial, sans-serif" font-size="9" fill="#5d4037">Hydrating Complex</text>
  
  <!-- Botanical decoration -->
  <path d="M30 220 Q35 210 40 220 Q45 210 50 220" stroke="#81c784" stroke-width="2" fill="none"/>
  <circle cx="35" cy="225" r="2" fill="#81c784"/>
  <circle cx="45" cy="225" r="2" fill="#81c784"/>
  
  <!-- Footer -->
  <rect x="20" y="220" width="360" height="60" fill="#e8f5e8" rx="8"/>
  <text x="200" y="240" text-anchor="middle" font-family="Arial, sans-serif" font-size="12" font-weight="600" fill="#2d5016">Luxury Wellness Experience</text>
  <text x="200" y="255" text-anchor="middle" font-family="Arial, sans-serif" font-size="10" fill="#558b2f">Premium botanical formulations for skincare</text>
  <text x="200" y="270" text-anchor="middle" font-family="Arial, sans-serif" font-size="10" fill="#558b2f">4 pages • Elegant design • Professional layout</text>
</svg>
